<svg width="26" height="26" viewBox="0 0 26 26" fill="none" xmlns="http://www.w3.org/2000/svg">
<path d="M23.8333 4.34297C22.8902 4.99547 21.846 5.49453 20.7409 5.82092C20.1477 5.15199 19.3595 4.67786 18.4826 4.46268C17.6058 4.24749 16.6828 4.30162 15.8384 4.61774C14.9939 4.93387 14.2689 5.49674 13.7612 6.23023C13.2536 6.96371 12.9878 7.83243 13 8.71888V9.68486C11.2692 9.72888 9.55424 9.35238 8.00777 8.5889C6.4613 7.82542 5.13133 6.69865 4.13632 5.30895C4.13632 5.30895 0.196929 14.0028 9.06057 17.8668C7.0323 19.2172 4.6161 19.8943 2.16663 19.7987C11.0303 24.6287 21.8636 19.7987 21.8636 8.6899C21.8627 8.42083 21.8363 8.15242 21.7848 7.88813C22.7899 6.91586 23.4993 5.68831 23.8333 4.34297Z" stroke="#EEF4FF" stroke-width="2" stroke-linecap="round" stroke-linejoin="round"/>
</svg>
